<?xml version="1.0" encoding="utf-8"?>
<!-- Generator: Adobe Illustrator 16.0.0, SVG Export Plug-In . SVG Version: 6.00 Build 0)  -->
<!DOCTYPE svg PUBLIC "-//W3C//DTD SVG 1.1//EN" "http://www.w3.org/Graphics/SVG/1.1/DTD/svg11.dtd">
<svg version="1.1" id="Слой_1" xmlns="http://www.w3.org/2000/svg" xmlns:xlink="http://www.w3.org/1999/xlink" x="0px" y="0px"
	 width="60px" height="82px" viewBox="0 0 60 82" enable-background="new 0 0 60 82" xml:space="preserve">
<g>
	<path fill="#FFFFFF" d="M29.884,37.553v40.589C25.632,70.35,10.02,62.422,7.624,61.239v-42.3
		c4.439,0.88,19.383,12.159,21.962,17.313c-0.051,0.144-0.043,0.306,0.051,0.441c0.143,0.205,0.223,0.391,0.275,0.567
		C29.896,37.358,29.884,37.457,29.884,37.553z"/>
	<path fill="#FFFFFF" d="M30.956,78.143V37.553c0-0.096-0.012-0.193-0.027-0.291c0.055-0.186,0.14-0.381,0.293-0.597
		c0.099-0.138,0.106-0.307,0.051-0.455c2.639-5.173,17.517-16.394,21.944-17.272v42.3C50.82,62.422,35.208,70.35,30.956,78.143z"/>
	<g>
		<path fill="#3B52A4" d="M53.269,34.863c-5.515,1.858-16.572,9.968-21.935,14.529c0,4.499,0,9.683,0,14.571l21.935-13.851
			C53.269,45.43,53.269,39.944,53.269,34.863z"/>
		<path fill="#EF4130" d="M53.226,61.546c0-1.107,0-6.552,0-13.221c-5.267,1.806-16.396,11.365-21.892,16.111
			c0,4.104,0,13.533,0,13.533l0.465-0.298C36.854,69.69,53.226,61.546,53.226,61.546z"/>
		<path fill="#939598" d="M59.869,67.297V24.691c0-0.271-0.22-0.491-0.491-0.491c-0.514,0-1.311,0.116-2.344,0.332v-2.579
			c0-0.271-0.22-0.491-0.491-0.491c-0.534,0-1.33,0.163-2.344,0.467v-3.537c0-0.271-0.22-0.491-0.491-0.491
			c-4.228,0-20.172,11.961-23.288,17.925c-3.116-5.963-19.06-17.925-23.287-17.925c-0.271,0-0.491,0.22-0.491,0.491v3.538
			c-1.014-0.305-1.809-0.468-2.344-0.468c-0.271,0-0.491,0.22-0.491,0.491v2.58C2.773,24.316,1.977,24.2,1.463,24.2
			c-0.271,0-0.491,0.22-0.491,0.491v42.605c0,0.209,0.133,0.396,0.33,0.465c8.94,3.097,22.098,8.388,26.857,11.901
			c0.025,0.004,0.056,0.008,0.079,0.011c0,0.015-0.003,0.028-0.005,0.042c0.838,0.627,1.239,1.003,1.62,1.683
			c0.209,0.492,0.916,0.47,1.133,0c1.463-3.226,17.966-9.97,28.553-13.637C59.736,67.692,59.869,67.506,59.869,67.297z
			 M1.954,66.947V25.213c0.396,0.041,0.997,0.139,1.853,0.324v39.022c0,0.197,0.117,0.375,0.299,0.452
			c5.515,2.352,17.765,8.188,23.188,12.927C20.48,73.559,6.153,68.411,1.954,66.947z M4.789,64.234V22.487
			c0.398,0.06,0.999,0.2,1.853,0.47v38.589c0,0.188,0.107,0.36,0.277,0.442c0.195,0.095,16.623,8.105,21.622,15.786
			C22.658,72.095,7.83,65.543,4.789,64.234z M29.884,37.553v40.589C25.632,70.35,10.02,62.422,7.624,61.239v-42.3
			c4.439,0.88,19.383,12.159,21.962,17.313c-0.051,0.144-0.043,0.306,0.051,0.441c0.143,0.205,0.223,0.391,0.275,0.567
			C29.896,37.358,29.884,37.457,29.884,37.553z M30.956,78.143V37.553c0-0.096-0.012-0.193-0.027-0.291
			c0.055-0.186,0.14-0.381,0.293-0.597c0.099-0.138,0.106-0.307,0.051-0.455c2.639-5.173,17.517-16.394,21.944-17.272v42.3
			C50.82,62.422,35.208,70.35,30.956,78.143z M53.922,61.988c0.17-0.082,0.277-0.254,0.277-0.442V22.957
			c0.854-0.27,1.454-0.41,1.853-0.469v41.747c-3.04,1.309-17.87,7.86-23.753,13.54C37.299,70.094,53.727,62.083,53.922,61.988z
			 M58.887,66.947c-4.199,1.464-18.526,6.611-25.341,10.99c5.425-4.739,17.675-10.576,23.189-12.927
			c0.182-0.077,0.299-0.255,0.299-0.452V25.536c0.855-0.185,1.456-0.282,1.853-0.323V66.947z"/>
		
			<path fill="none" stroke="#939598" stroke-width="0.9829" stroke-linecap="round" stroke-linejoin="round" stroke-miterlimit="10" d="
			M53.708,22.596"/>
		<path fill="#08683A" d="M30.371,29.25C42.447,29.25,33.294,0,30.026,0c0,7.75-5.034,13.25-5.034,21.25
			C24.992,25.25,27.242,29.25,30.371,29.25z"/>
		<path fill="#62997B" d="M32.149,4.875c0,2.546-6.125,17,0,17S32.149,4.875,32.149,4.875z"/>
		<g>
			<g>
				<path fill="#F8C811" d="M30.436,67.875c7.5,0,15.75-9.625,15.75-20.375C46.186,47.5,30.436,53.25,30.436,67.875z"/>
				<path fill="none" stroke="#08683A" stroke-miterlimit="10" d="M30.436,67.875c7.5,0,15.75-9.625,15.75-20.375
					C46.186,47.5,30.436,53.25,30.436,67.875z"/>
			</g>
			<linearGradient id="SVGID_1_" gradientUnits="userSpaceOnUse" x1="38.7275" y1="49" x2="38.7275" y2="65.417">
				<stop  offset="0" style="stop-color:#FFFFFF"/>
				<stop  offset="0.0849" style="stop-color:#FFFCF4;stop-opacity:0.9151"/>
				<stop  offset="0.2218" style="stop-color:#FEF5DF;stop-opacity:0.7782"/>
				<stop  offset="0.3936" style="stop-color:#FDECC0;stop-opacity:0.6064"/>
				<stop  offset="0.5935" style="stop-color:#FCE095;stop-opacity:0.4065"/>
				<stop  offset="0.8141" style="stop-color:#FAD35C;stop-opacity:0.1859"/>
				<stop  offset="1" style="stop-color:#F8C811;stop-opacity:0"/>
			</linearGradient>
			<path fill="url(#SVGID_1_)" d="M44.978,49c0,0-0.459,7.375-6.667,13.584l-5.833,2.833l2.166-6.75
				C34.644,58.667,37.478,53.333,44.978,49z"/>
			<g>
				<path fill="#F8C811" d="M30.313,67.875c-7.5,0-15.75-9.625-15.75-20.375C14.563,47.5,30.313,53.25,30.313,67.875z"/>
				<path fill="none" stroke="#08683A" stroke-miterlimit="10" d="M30.313,67.875c-7.5,0-15.75-9.625-15.75-20.375
					C14.563,47.5,30.313,53.25,30.313,67.875z"/>
			</g>
			
				<linearGradient id="SVGID_2_" gradientUnits="userSpaceOnUse" x1="16.9785" y1="48.999" x2="16.9785" y2="65.416" gradientTransform="matrix(-1 0 0 1 39 0)">
				<stop  offset="0" style="stop-color:#FFFFFF"/>
				<stop  offset="0.0849" style="stop-color:#FFFCF4;stop-opacity:0.9151"/>
				<stop  offset="0.2218" style="stop-color:#FEF5DF;stop-opacity:0.7782"/>
				<stop  offset="0.3936" style="stop-color:#FDECC0;stop-opacity:0.6064"/>
				<stop  offset="0.5935" style="stop-color:#FCE095;stop-opacity:0.4065"/>
				<stop  offset="0.8141" style="stop-color:#FAD35C;stop-opacity:0.1859"/>
				<stop  offset="1" style="stop-color:#F8C811;stop-opacity:0"/>
			</linearGradient>
			<path fill="url(#SVGID_2_)" d="M15.771,49c0,0,0.458,7.375,6.667,13.584l5.833,2.833l-2.167-6.75
				C26.104,58.667,23.271,53.333,15.771,49z"/>
		</g>
		<g>
			<path fill="#08683A" stroke="#08683A" stroke-width="0.9802" stroke-linecap="round" stroke-miterlimit="10" d="M30.714,47.5
				c10,0,16.167-11.85,16.167-18.375c0,0-8.875,5.364-11.917,8.287C31.922,40.334,30.714,44.537,30.714,47.5z"/>
			
				<linearGradient id="SVGID_3_" gradientUnits="userSpaceOnUse" x1="38.9785" y1="28.0581" x2="38.9785" y2="46.4438" gradientTransform="matrix(0.9966 0.0819 -0.0819 0.9966 2.9351 -1.6143)">
				<stop  offset="0" style="stop-color:#81AE9D"/>
				<stop  offset="0.1489" style="stop-color:#7EAB98;stop-opacity:0.8511"/>
				<stop  offset="0.3222" style="stop-color:#73A28C;stop-opacity:0.6778"/>
				<stop  offset="0.5078" style="stop-color:#63957A;stop-opacity:0.4922"/>
				<stop  offset="0.702" style="stop-color:#4B8563;stop-opacity:0.298"/>
				<stop  offset="0.9008" style="stop-color:#297247;stop-opacity:0.0992"/>
				<stop  offset="1" style="stop-color:#08683A;stop-opacity:0"/>
			</linearGradient>
			<path fill="url(#SVGID_3_)" d="M46.463,30.116c0,0-1.547,14.093-15.463,17.176C32.125,40.542,36.744,34.95,46.463,30.116z"/>
			<path fill="#08683A" stroke="#08683A" stroke-width="0.9802" stroke-linecap="round" stroke-miterlimit="10" d="M30.156,47.5
				c-10,0-16.166-11.85-16.166-18.375c0,0,8.875,5.364,11.916,8.287C28.949,40.334,30.156,44.537,30.156,47.5z"/>
		</g>
		
			<linearGradient id="SVGID_4_" gradientUnits="userSpaceOnUse" x1="178.9492" y1="16.5557" x2="178.9492" y2="34.9404" gradientTransform="matrix(-0.9966 0.0819 0.0819 0.9966 198.5283 -1.6143)">
			<stop  offset="0" style="stop-color:#81AE9D"/>
			<stop  offset="0.1489" style="stop-color:#7EAB98;stop-opacity:0.8511"/>
			<stop  offset="0.3222" style="stop-color:#73A28C;stop-opacity:0.6778"/>
			<stop  offset="0.5078" style="stop-color:#63957A;stop-opacity:0.4922"/>
			<stop  offset="0.702" style="stop-color:#4B8563;stop-opacity:0.298"/>
			<stop  offset="0.9008" style="stop-color:#297247;stop-opacity:0.0992"/>
			<stop  offset="1" style="stop-color:#08683A;stop-opacity:0"/>
		</linearGradient>
		<path fill="url(#SVGID_4_)" d="M14.557,30.116c0,0,1.547,14.093,15.463,17.176C28.895,40.542,24.275,34.95,14.557,30.116z"/>
		<path fill="#0D6437" d="M30.465,78.719c0.395,0,0.516-0.707,1-1.384v-48.96c0-0.552-0.447-1-1-1s-1,0.448-1,1v49.034
			C29.666,77.69,30.07,78.719,30.465,78.719z"/>
	</g>
	<path fill="#FFFFFF" d="M4.789,64.234V22.487c0.398,0.06,0.999,0.2,1.853,0.47v38.589c0,0.188,0.107,0.36,0.277,0.442
		c0.195,0.095,16.623,8.105,21.622,15.786C22.658,72.095,7.83,65.543,4.789,64.234z"/>
	<path fill="#FFFFFF" d="M1.954,66.947V25.213c0.396,0.041,0.997,0.139,1.853,0.324v39.022c0,0.197,0.117,0.375,0.299,0.452
		c5.515,2.352,17.765,8.188,23.188,12.927C20.48,73.559,6.153,68.411,1.954,66.947z"/>
	<path fill="#FFFFFF" d="M53.922,61.988c0.17-0.082,0.277-0.254,0.277-0.442V22.957c0.854-0.27,1.454-0.41,1.853-0.469v41.747
		c-3.04,1.309-17.87,7.86-23.753,13.54C37.299,70.094,53.727,62.083,53.922,61.988z"/>
	<path fill="#FFFFFF" d="M58.887,66.947c-4.199,1.464-18.526,6.611-25.341,10.99c5.425-4.739,17.675-10.576,23.189-12.927
		c0.182-0.077,0.299-0.255,0.299-0.452V25.536c0.855-0.185,1.456-0.282,1.853-0.323V66.947z"/>
</g>
<g>
</g>
<g>
</g>
<g>
</g>
<g>
</g>
<g>
</g>
<g>
</g>
</svg>
