<?xml version="1.0" encoding="utf-8"?>
<!-- Generator: Adobe Illustrator 16.0.0, SVG Export Plug-In . SVG Version: 6.00 Build 0)  -->
<!DOCTYPE svg PUBLIC "-//W3C//DTD SVG 1.1//EN" "http://www.w3.org/Graphics/SVG/1.1/DTD/svg11.dtd">
<svg version="1.1" id="Слой_1" xmlns="http://www.w3.org/2000/svg" xmlns:xlink="http://www.w3.org/1999/xlink" x="0px" y="0px"
	 width="16px" height="16px" viewBox="0 0 16 16" enable-background="new 0 0 16 16" xml:space="preserve">
<g>
	<path fill="#75bbf7" d="M8.037,12.804c-3.27,0-6.136-3.319-7.04-4.483c0.904-1.164,3.77-4.483,7.04-4.483c3.269,0,6.135,3.319,7.039,4.483
		C14.172,9.484,11.306,12.804,8.037,12.804z"/>
	<path fill="#75bbf7" d="M8.037,4.541c2.634,0,5.045,2.47,6.138,3.78c-1.094,1.31-3.504,3.78-6.138,3.78c-2.635,0-5.045-2.47-6.138-3.78
		C2.992,7.01,5.403,4.541,8.037,4.541 M8.037,3.135c-4.373,0-7.916,5.186-7.916,5.186s3.543,5.186,7.916,5.186
		c4.372,0,7.915-5.186,7.915-5.186S12.409,3.135,8.037,3.135L8.037,3.135z"/>
</g>
<g>
	<path fill="#75bbf7" d="M8.037,11.222c-1.68,0-3.047-1.366-3.047-3.046c0-1.679,1.367-3.045,3.047-3.045c1.679,0,3.045,1.366,3.045,3.045
		C11.082,9.855,9.716,11.222,8.037,11.222z"/>
	<path fill="#fff" d="M8.037,5.88c1.268,0,2.295,1.028,2.295,2.295c0,1.269-1.027,2.296-2.295,2.296
		c-1.269,0-2.297-1.027-2.297-2.296C5.74,6.908,6.769,5.88,8.037,5.88 M8.037,4.38c-2.094,0-3.797,1.703-3.797,3.795
		s1.703,3.796,3.797,3.796c2.093,0,3.795-1.703,3.795-3.796S10.13,4.38,8.037,4.38L8.037,4.38z"/>
</g>
</svg>
