<?xml version="1.0" encoding="utf-8"?>
<!-- Generator: Adobe Illustrator 16.0.0, SVG Export Plug-In . SVG Version: 6.00 Build 0)  -->
<!DOCTYPE svg PUBLIC "-//W3C//DTD SVG 1.1//EN" "http://www.w3.org/Graphics/SVG/1.1/DTD/svg11.dtd">
<svg version="1.1" id="Layer_1" xmlns="http://www.w3.org/2000/svg" xmlns:xlink="http://www.w3.org/1999/xlink" x="0px" y="0px"
	 width="24px" height="24px" viewBox="-4 -4 24 24" enable-background="new -4 -4 24 24" xml:space="preserve">
<path fill="#54769B" d="M17.986-4H-2.001C-3.1-4-4-3.101-4-2.001v19.988c0,1.099,0.9,1.998,1.999,1.998h19.987
	c1.098,0,1.998-0.899,1.998-1.998V-2.001C19.984-3.101,19.084-4,17.986-4z"/>
<path id="VK_1_" fill="#FFFFFF" d="M8.492,12.489c0.501,0,0.501-0.7,0.501-0.999c0-0.5,0.499-1,0.997-1c0.5,0,1.352,0.851,2.001,1.5
	c0.499,0.499,0.499,0.499,0.999,0.499c0.498,0,1.499,0,1.499,0s0.999-0.05,0.999-0.999c0-0.3-0.35-0.851-1.499-1.999
	c-0.999-1-1.499-0.498,0-2.499c0.899-1.249,1.6-2.348,1.499-2.648c-0.1-0.3-2.649-0.8-2.998-0.35
	c-0.999,1.499-1.2,1.849-1.499,2.499c-0.501,1-0.55,1.499-1.001,1.499c-0.448,0-0.498-0.949-0.498-1.499
	c0-1.649,0.25-2.798-0.499-2.998c0,0-1,0-1.5,0c-0.8,0-1.499,0.5-1.499,0.5s-0.6,0.5-0.5,0.5c0.15,0,1-0.2,1,0.5c0,0.5,0,1,0,1
	s0,1.998-0.499,1.998c-0.5,0-1.5-1.998-2.499-3.498c-0.399-0.599-0.5-0.5-1-0.5c-0.55,0-1,0-1.499,0s-0.55,0.3-0.5,0.5
	c0.999,2.499,1.699,4.048,3.598,6.046c1.749,1.8,2.898,1.899,3.897,1.949C8.243,12.489,7.993,12.489,8.492,12.489z"/>
</svg>
